# xmcd
#
# Track frame offsets:
#	150
#	15460
#	29337
#	46362
#	64170
#	74155
#	88752
#	102077
#	113310
#	144032
#	159400
#	182105
#
# Disc length: 2683 seconds
#
# Revision: 3
# Processed by: cddbd v1.4PL0 Copyright (c) Steve Scherf et al.
# Submitted via: dBpowerAMP V4.0
#
DISCID=960a790c
DTITLE=Baptist Generals - No Silver  No Gold - 
DYEAR=2003
DGENRE=Country
TTITLE0=Ay Distress
TTITLE1=Alcohol (Turn and Fall)
TTITLE2=500 League Reunion March (In A Plymouth)
TTITLE3=Going Back Song
TTITLE4=Creeper
TTITLE5=Preservative
TTITLE6=On A Wheel
TTITLE7=Feds On The Highway
TTITLE8=Diminished
TTITLE9=Burning
TTITLE10=St. Christopher's Medal
TTITLE11=Going Back Song (4-track solo)
EXTD=
EXTT0=
EXTT1=
EXTT2=
EXTT3=
EXTT4=
EXTT5=
EXTT6=
EXTT7=
EXTT8=
EXTT9=
EXTT10=
EXTT11=
PLAYORDER=
